<svg width="16" height="16" viewBox="0 0 16 16" fill="none" xmlns="http://www.w3.org/2000/svg">
<g id="mail-01">
<path id="Icon" d="M1.33333 4.66675L6.77661 8.47704C7.21739 8.78559 7.43778 8.93986 7.6775 8.99962C7.88926 9.0524 8.11073 9.0524 8.32249 8.99962C8.56221 8.93986 8.7826 8.78559 9.22338 8.47704L14.6667 4.66675M4.53333 13.3334H11.4667C12.5868 13.3334 13.1468 13.3334 13.5746 13.1154C13.951 12.9237 14.2569 12.6177 14.4487 12.2414C14.6667 11.8136 14.6667 11.2535 14.6667 10.1334V5.86675C14.6667 4.74664 14.6667 4.18659 14.4487 3.75877C14.2569 3.38244 13.951 3.07648 13.5746 2.88474C13.1468 2.66675 12.5868 2.66675 11.4667 2.66675H4.53333C3.41322 2.66675 2.85317 2.66675 2.42535 2.88474C2.04902 3.07648 1.74306 3.38244 1.55132 3.75877C1.33333 4.18659 1.33333 4.74664 1.33333 5.86675V10.1334C1.33333 11.2535 1.33333 11.8136 1.55132 12.2414C1.74306 12.6177 2.04902 12.9237 2.42535 13.1154C2.85317 13.3334 3.41322 13.3334 4.53333 13.3334Z" stroke="#667085" stroke-width="1.33333" stroke-linecap="round" stroke-linejoin="round"/>
</g>
</svg>
