<svg width="220" height="161" viewBox="0 0 220 161" fill="none" xmlns="http://www.w3.org/2000/svg">
<circle cx="110" cy="80.5" r="80" fill="#E4E7EC"/>
<circle cx="26" cy="20.5" r="8" fill="#F2F4F7"/>
<circle cx="198" cy="126.5" r="6" fill="#F2F4F7"/>
<circle cx="25" cy="138.5" r="10" fill="#F2F4F7"/>
<circle cx="210" cy="46.5" r="10" fill="#F2F4F7"/>
<circle cx="191" cy="11.5" r="7" fill="#F2F4F7"/>
<g filter="url(#filter0_dd_11182_8833)">
<path fill-rule="evenodd" clip-rule="evenodd" d="M113.486 16.5C96.7495 16.5 81.9448 24.7701 72.9354 37.4466C69.9934 36.7528 66.9253 36.3857 63.7714 36.3857C41.8063 36.3857 24 54.192 24 76.1571C24 98.1223 41.8063 115.929 63.7714 115.929H163.2C182.42 115.929 198 100.348 198 81.1286C198 61.9091 182.42 46.3286 163.2 46.3286C161.835 46.3286 160.488 46.4072 159.164 46.5601C151.546 28.8784 133.961 16.5 113.486 16.5Z" fill="#F9FAFB"/>
<circle cx="63.7714" cy="76.1572" r="39.7714" fill="url(#paint0_linear_11182_8833)"/>
<circle cx="113.486" cy="66.2143" r="49.7143" fill="url(#paint1_linear_11182_8833)"/>
<circle cx="163.2" cy="81.1286" r="34.8" fill="url(#paint2_linear_11182_8833)"/>
</g>
<g filter="url(#filter1_b_11182_8833)">
<rect x="82" y="84.5" width="56" height="56" rx="28" fill="#344054" fill-opacity="0.4"/>
<path d="M120.5 123L116.417 118.917M119.333 111.917C119.333 117.393 114.893 121.833 109.417 121.833C103.94 121.833 99.5 117.393 99.5 111.917C99.5 106.44 103.94 102 109.417 102C114.893 102 119.333 106.44 119.333 111.917Z" stroke="white" stroke-width="2" stroke-linecap="round" stroke-linejoin="round"/>
</g>
<defs>
<filter id="filter0_dd_11182_8833" x="4" y="16.5" width="214" height="139.429" filterUnits="userSpaceOnUse" color-interpolation-filters="sRGB">
<feFlood flood-opacity="0" result="BackgroundImageFix"/>
<feColorMatrix in="SourceAlpha" type="matrix" values="0 0 0 0 0 0 0 0 0 0 0 0 0 0 0 0 0 0 127 0" result="hardAlpha"/>
<feMorphology radius="4" operator="erode" in="SourceAlpha" result="effect1_dropShadow_11182_8833"/>
<feOffset dy="8"/>
<feGaussianBlur stdDeviation="4"/>
<feComposite in2="hardAlpha" operator="out"/>
<feColorMatrix type="matrix" values="0 0 0 0 0.0627451 0 0 0 0 0.0941176 0 0 0 0 0.156863 0 0 0 0.03 0"/>
<feBlend mode="normal" in2="BackgroundImageFix" result="effect1_dropShadow_11182_8833"/>
<feColorMatrix in="SourceAlpha" type="matrix" values="0 0 0 0 0 0 0 0 0 0 0 0 0 0 0 0 0 0 127 0" result="hardAlpha"/>
<feMorphology radius="4" operator="erode" in="SourceAlpha" result="effect2_dropShadow_11182_8833"/>
<feOffset dy="20"/>
<feGaussianBlur stdDeviation="12"/>
<feComposite in2="hardAlpha" operator="out"/>
<feColorMatrix type="matrix" values="0 0 0 0 0.0627451 0 0 0 0 0.0941176 0 0 0 0 0.156863 0 0 0 0.08 0"/>
<feBlend mode="normal" in2="effect1_dropShadow_11182_8833" result="effect2_dropShadow_11182_8833"/>
<feBlend mode="normal" in="SourceGraphic" in2="effect2_dropShadow_11182_8833" result="shape"/>
</filter>
<filter id="filter1_b_11182_8833" x="74" y="76.5" width="72" height="72" filterUnits="userSpaceOnUse" color-interpolation-filters="sRGB">
<feFlood flood-opacity="0" result="BackgroundImageFix"/>
<feGaussianBlur in="BackgroundImageFix" stdDeviation="4"/>
<feComposite in2="SourceAlpha" operator="in" result="effect1_backgroundBlur_11182_8833"/>
<feBlend mode="normal" in="SourceGraphic" in2="effect1_backgroundBlur_11182_8833" result="shape"/>
</filter>
<linearGradient id="paint0_linear_11182_8833" x1="33.2326" y1="49.8796" x2="103.543" y2="115.929" gradientUnits="userSpaceOnUse">
<stop stop-color="#D0D5DD"/>
<stop offset="0.350715" stop-color="white" stop-opacity="0"/>
</linearGradient>
<linearGradient id="paint1_linear_11182_8833" x1="75.3123" y1="33.3673" x2="163.2" y2="115.928" gradientUnits="userSpaceOnUse">
<stop stop-color="#D0D5DD"/>
<stop offset="0.350715" stop-color="white" stop-opacity="0"/>
</linearGradient>
<linearGradient id="paint2_linear_11182_8833" x1="136.479" y1="58.1358" x2="198" y2="115.929" gradientUnits="userSpaceOnUse">
<stop stop-color="#D0D5DD"/>
<stop offset="0.350715" stop-color="white" stop-opacity="0"/>
</linearGradient>
</defs>
</svg>
