<svg width="220" height="178" viewBox="0 0 220 178" fill="none" xmlns="http://www.w3.org/2000/svg">
<circle cx="110" cy="88.5" r="80" fill="#E4E7EC"/>
<circle cx="26" cy="28.5" r="8" fill="#F2F4F7"/>
<circle cx="198" cy="134.5" r="6" fill="#F2F4F7"/>
<circle cx="25" cy="146.5" r="10" fill="#F2F4F7"/>
<circle cx="210" cy="54.5" r="10" fill="#F2F4F7"/>
<circle cx="191" cy="19.5" r="7" fill="#F2F4F7"/>
<g filter="url(#filter0_dd_11182_8851)">
<path d="M110 55.4529L116.912 52.5578L110.001 55.502V137.932L173.69 111.243V28.7767L174 28.6466L173.69 28.509V28.3705L173.53 28.4384L110.503 0.5L46 27.9765L46.3053 28.1076L46 110.24L110 137.883L110 55.4529Z" fill="#F9FAFB"/>
<path d="M110 55.453V137.883L46 110.239L46.3053 28.1075L110 55.453Z" fill="url(#paint0_linear_11182_8851)"/>
<path d="M110.001 55.502V137.932L173.69 111.243V28.3705L110.001 55.502Z" fill="url(#paint1_linear_11182_8851)"/>
<path d="M110 55.4529L174 28.6466L110.503 0.5L46 27.9765L110 55.4529Z" fill="#F2F4F7"/>
<path d="M70.1255 17.6998L133.881 45.4503L134.461 65.673L152.299 58.3126L151.759 37.9622L86.1172 10.8877L70.1255 17.6998Z" fill="#E4E7EC"/>
</g>
<g filter="url(#filter1_b_11182_8851)">
<rect x="82" y="104.5" width="56" height="56" rx="28" fill="#344054" fill-opacity="0.4"/>
<path d="M105.333 137.167L110 132.5M110 132.5L114.667 137.167M110 132.5V143M119.333 138.033C120.758 136.856 121.667 135.076 121.667 133.083C121.667 129.54 118.794 126.667 115.25 126.667C114.995 126.667 114.756 126.534 114.627 126.314C113.106 123.732 110.297 122 107.083 122C102.251 122 98.3333 125.918 98.3333 130.75C98.3333 133.16 99.3079 135.343 100.885 136.926" stroke="white" stroke-width="2" stroke-linecap="round" stroke-linejoin="round"/>
</g>
<defs>
<filter id="filter0_dd_11182_8851" x="26" y="0.5" width="168" height="177.432" filterUnits="userSpaceOnUse" color-interpolation-filters="sRGB">
<feFlood flood-opacity="0" result="BackgroundImageFix"/>
<feColorMatrix in="SourceAlpha" type="matrix" values="0 0 0 0 0 0 0 0 0 0 0 0 0 0 0 0 0 0 127 0" result="hardAlpha"/>
<feMorphology radius="4" operator="erode" in="SourceAlpha" result="effect1_dropShadow_11182_8851"/>
<feOffset dy="8"/>
<feGaussianBlur stdDeviation="4"/>
<feComposite in2="hardAlpha" operator="out"/>
<feColorMatrix type="matrix" values="0 0 0 0 0.0627451 0 0 0 0 0.0941176 0 0 0 0 0.156863 0 0 0 0.03 0"/>
<feBlend mode="normal" in2="BackgroundImageFix" result="effect1_dropShadow_11182_8851"/>
<feColorMatrix in="SourceAlpha" type="matrix" values="0 0 0 0 0 0 0 0 0 0 0 0 0 0 0 0 0 0 127 0" result="hardAlpha"/>
<feMorphology radius="4" operator="erode" in="SourceAlpha" result="effect2_dropShadow_11182_8851"/>
<feOffset dy="20"/>
<feGaussianBlur stdDeviation="12"/>
<feComposite in2="hardAlpha" operator="out"/>
<feColorMatrix type="matrix" values="0 0 0 0 0.0627451 0 0 0 0 0.0941176 0 0 0 0 0.156863 0 0 0 0.08 0"/>
<feBlend mode="normal" in2="effect1_dropShadow_11182_8851" result="effect2_dropShadow_11182_8851"/>
<feBlend mode="normal" in="SourceGraphic" in2="effect2_dropShadow_11182_8851" result="shape"/>
</filter>
<filter id="filter1_b_11182_8851" x="74" y="96.5" width="72" height="72" filterUnits="userSpaceOnUse" color-interpolation-filters="sRGB">
<feFlood flood-opacity="0" result="BackgroundImageFix"/>
<feGaussianBlur in="BackgroundImageFix" stdDeviation="4"/>
<feComposite in2="SourceAlpha" operator="in" result="effect1_backgroundBlur_11182_8851"/>
<feBlend mode="normal" in="SourceGraphic" in2="effect1_backgroundBlur_11182_8851" result="shape"/>
</filter>
<linearGradient id="paint0_linear_11182_8851" x1="46" y1="110.654" x2="71.2754" y2="42.2013" gradientUnits="userSpaceOnUse">
<stop stop-color="#DEE1E8"/>
<stop offset="1" stop-color="#EFF1F5"/>
</linearGradient>
<linearGradient id="paint1_linear_11182_8851" x1="110" y1="57.1154" x2="182.166" y2="71.483" gradientUnits="userSpaceOnUse">
<stop stop-color="#E4E7EC"/>
<stop offset="1" stop-color="#F2F4F7"/>
</linearGradient>
</defs>
</svg>
