<svg width="32" height="32" viewBox="0 0 32 32" fill="none" xmlns="http://www.w3.org/2000/svg">
<g clip-path="url(#clip0_10173_117)">
<rect width="32" height="32" rx="8" fill="url(#paint0_linear_10173_117)"/>
<path fill-rule="evenodd" clip-rule="evenodd" d="M16 2.03885C8.28948 2.03885 2.03885 8.28948 2.03885 16C2.03885 23.7106 8.28948 29.9612 16 29.9612C23.7106 29.9612 29.9612 23.7106 29.9612 16C29.9612 8.28948 23.7106 2.03885 16 2.03885ZM1.96118 16C1.96118 8.24658 8.24658 1.96118 16 1.96118C23.7535 1.96118 30.0389 8.24658 30.0389 16C30.0389 23.7535 23.7535 30.0389 16 30.0389C8.24658 30.0389 1.96118 23.7535 1.96118 16Z" fill="#D0D5DD"/>
<path fill-rule="evenodd" clip-rule="evenodd" d="M16 12.0779C13.8338 12.0779 12.0777 13.834 12.0777 16.0002C12.0777 18.1665 13.8338 19.9226 16 19.9226C18.1662 19.9226 19.9223 18.1665 19.9223 16.0002C19.9223 13.834 18.1662 12.0779 16 12.0779ZM12 16.0002C12 13.7911 13.7909 12.0002 16 12.0002C18.2091 12.0002 20 13.7911 20 16.0002C20 18.2094 18.2091 20.0002 16 20.0002C13.7909 20.0002 12 18.2094 12 16.0002Z" fill="#D0D5DD"/>
<path fill-rule="evenodd" clip-rule="evenodd" d="M16 13.3201C14.52 13.3201 13.3203 14.5198 13.3203 15.9997C13.3203 17.4796 14.52 18.6793 16 18.6793C17.4799 18.6793 18.6796 17.4796 18.6796 15.9997C18.6796 14.5198 17.4799 13.3201 16 13.3201ZM13.2427 15.9997C13.2427 14.4769 14.4772 13.2424 16 13.2424C17.5228 13.2424 18.7572 14.4769 18.7572 15.9997C18.7572 17.5225 17.5228 18.757 16 18.757C14.4772 18.757 13.2427 17.5225 13.2427 15.9997Z" fill="#D0D5DD"/>
<path d="M15.9612 0H16.0389V32H15.9612V0Z" fill="#D0D5DD"/>
<path d="M32 15.9609L32 16.0386L-3.39506e-09 16.0386L0 15.9609L32 15.9609Z" fill="#D0D5DD"/>
<path d="M26.6019 0H26.6796V32H26.6019V0Z" fill="#D0D5DD"/>
<path d="M10.6407 0H10.7184V32H10.6407V0Z" fill="#D0D5DD"/>
<path d="M21.2815 0H21.3592V32H21.2815V0Z" fill="#D0D5DD"/>
<path d="M5.32031 0H5.39798V32H5.32031V0Z" fill="#D0D5DD"/>
<path d="M32 26.6016L32 26.6792L-3.39506e-09 26.6792L0 26.6016L32 26.6016Z" fill="#D0D5DD"/>
<path d="M32 10.6406L32 10.7183L-3.39506e-09 10.7183L0 10.6406L32 10.6406Z" fill="#D0D5DD"/>
<path d="M32 21.2812L32 21.3589L-3.39506e-09 21.3589L0 21.2812L32 21.2812Z" fill="#D0D5DD"/>
<path d="M32 5.32031L32 5.39798L-3.39506e-09 5.39798L0 5.32031L32 5.32031Z" fill="#D0D5DD"/>
<g filter="url(#filter0_d_10173_117)">
<path d="M7.99219 7.95715C12.3213 11.9574 19.0277 11.9574 23.3568 7.95715C19.3277 12.2552 19.3277 18.9135 23.3568 23.2116C19.0277 19.2114 12.3213 19.2114 7.99219 23.2116C12.0213 18.9135 12.0213 12.2552 7.99219 7.95715Z" fill="url(#paint1_linear_10173_117)"/>
</g>
<g filter="url(#filter1_d_10173_117)">
<path d="M4.81067 15.5842C10.7208 15.3736 15.4629 10.6655 15.6751 4.7977C15.8872 10.6655 20.6293 15.3736 26.5395 15.5842C20.6293 15.7948 15.8872 20.503 15.6751 26.3708C15.4629 20.503 10.7208 15.7948 4.81067 15.5842Z" fill="url(#paint2_linear_10173_117)"/>
</g>
</g>
<rect x="0.1" y="0.1" width="31.8" height="31.8" rx="7.9" stroke="#D0D5DD" stroke-width="0.2"/>
<defs>
<filter id="filter0_d_10173_117" x="-78.1167" y="-16.1124" width="187.582" height="192.557" filterUnits="userSpaceOnUse" color-interpolation-filters="sRGB">
<feFlood flood-opacity="0" result="BackgroundImageFix"/>
<feColorMatrix in="SourceAlpha" type="matrix" values="0 0 0 0 0 0 0 0 0 0 0 0 0 0 0 0 0 0 127 0" result="hardAlpha"/>
<feMorphology radius="43.0545" operator="erode" in="SourceAlpha" result="effect1_dropShadow_10173_117"/>
<feOffset dy="64.5817"/>
<feGaussianBlur stdDeviation="64.5817"/>
<feComposite in2="hardAlpha" operator="out"/>
<feColorMatrix type="matrix" values="0 0 0 0 0.141176 0 0 0 0 0.141176 0 0 0 0 0.141176 0 0 0 0.1 0"/>
<feBlend mode="normal" in2="BackgroundImageFix" result="effect1_dropShadow_10173_117"/>
<feBlend mode="normal" in="SourceGraphic" in2="effect1_dropShadow_10173_117" result="shape"/>
</filter>
<filter id="filter1_d_10173_117" x="-83.1089" y="-18.5272" width="197.568" height="197.386" filterUnits="userSpaceOnUse" color-interpolation-filters="sRGB">
<feFlood flood-opacity="0" result="BackgroundImageFix"/>
<feColorMatrix in="SourceAlpha" type="matrix" values="0 0 0 0 0 0 0 0 0 0 0 0 0 0 0 0 0 0 127 0" result="hardAlpha"/>
<feMorphology radius="43.0545" operator="erode" in="SourceAlpha" result="effect1_dropShadow_10173_117"/>
<feOffset dy="64.5817"/>
<feGaussianBlur stdDeviation="64.5817"/>
<feComposite in2="hardAlpha" operator="out"/>
<feColorMatrix type="matrix" values="0 0 0 0 0.141176 0 0 0 0 0.141176 0 0 0 0 0.141176 0 0 0 0.1 0"/>
<feBlend mode="normal" in2="BackgroundImageFix" result="effect1_dropShadow_10173_117"/>
<feBlend mode="normal" in="SourceGraphic" in2="effect1_dropShadow_10173_117" result="shape"/>
</filter>
<linearGradient id="paint0_linear_10173_117" x1="-0.000498336" y1="31.9998" x2="31.9996" y2="-0.000389615" gradientUnits="userSpaceOnUse">
<stop stop-color="#4300B1"/>
<stop offset="1" stop-color="#A531DC"/>
</linearGradient>
<linearGradient id="paint1_linear_10173_117" x1="15.6745" y1="7.95715" x2="15.6745" y2="23.2116" gradientUnits="userSpaceOnUse">
<stop stop-color="white" stop-opacity="0.8"/>
<stop offset="1" stop-color="white" stop-opacity="0.5"/>
</linearGradient>
<linearGradient id="paint2_linear_10173_117" x1="10.2429" y1="10.191" x2="21.0291" y2="21.0551" gradientUnits="userSpaceOnUse">
<stop stop-color="white" stop-opacity="0.8"/>
<stop offset="1" stop-color="white" stop-opacity="0.5"/>
</linearGradient>
<clipPath id="clip0_10173_117">
<rect width="32" height="32" rx="8" fill="white"/>
</clipPath>
</defs>
</svg>
