<svg width="194" height="193" viewBox="0 0 194 193" fill="none" xmlns="http://www.w3.org/2000/svg">
<path d="M134.882 42.7612V20.4619H141.885L142.205 27.727L140.832 26.2992C141.229 25.1234 141.839 24.0595 142.663 23.1076C143.487 22.1557 144.463 21.3998 145.592 20.8399C146.752 20.28 147.957 20 149.208 20C149.757 20 150.261 20.042 150.718 20.126C151.207 20.182 151.634 20.28 152 20.4199L150.032 27.853C149.696 27.685 149.238 27.5451 148.659 27.4331C148.109 27.2931 147.53 27.2231 146.919 27.2231C146.248 27.2231 145.623 27.3351 145.043 27.5591C144.494 27.755 144.005 28.049 143.578 28.441C143.181 28.8329 142.861 29.2948 142.617 29.8268C142.403 30.3587 142.297 30.9606 142.297 31.6326V42.7612H134.882Z" fill="url(#paint0_linear_10173_1122)"/>
<path d="M122.802 43.1811C120.117 43.1811 117.767 42.6912 115.753 41.7113C113.77 40.7314 112.229 39.3876 111.13 37.6798C110.063 35.944 109.529 33.9703 109.529 31.7585C109.529 30.0228 109.834 28.441 110.444 27.0131C111.054 25.5573 111.909 24.3115 113.007 23.2756C114.136 22.2397 115.448 21.4418 116.943 20.8819C118.469 20.294 120.132 20 121.932 20C123.641 20 125.197 20.28 126.601 20.8399C128.005 21.3998 129.225 22.1837 130.263 23.1916C131.3 24.1995 132.094 25.3893 132.643 26.7612C133.192 28.133 133.452 29.6308 133.421 31.2546L133.375 33.1024H114.06L112.961 29.2808H127.379L126.601 30.0368V29.1969C126.54 28.4969 126.296 27.895 125.869 27.3911C125.472 26.8591 124.938 26.4392 124.267 26.1312C123.626 25.8233 122.894 25.6693 122.07 25.6693C120.849 25.6693 119.812 25.8933 118.957 26.3412C118.133 26.7612 117.508 27.3771 117.081 28.189C116.654 29.0009 116.44 30.0088 116.44 31.2126C116.44 32.4165 116.715 33.4803 117.264 34.4042C117.844 35.3281 118.667 36.042 119.735 36.5459C120.834 37.0499 122.131 37.3018 123.626 37.3018C124.633 37.3018 125.548 37.1619 126.372 36.8819C127.196 36.6019 128.081 36.126 129.027 35.4541L132.46 39.9055C131.514 40.6334 130.507 41.2494 129.439 41.7533C128.371 42.2292 127.272 42.5792 126.143 42.8032C125.045 43.0551 123.931 43.1811 122.802 43.1811Z" fill="url(#paint1_linear_10173_1122)"/>
<path d="M84.2994 52V20.4619H91.3023L91.6227 25.3753L90.2038 24.9974C90.3869 24.1015 90.8904 23.2896 91.7143 22.5617C92.5687 21.8058 93.6214 21.2038 94.8725 20.7559C96.1236 20.28 97.4509 20.042 98.8546 20.042C100.93 20.042 102.776 20.5319 104.393 21.5118C106.01 22.4917 107.276 23.8635 108.192 25.6273C109.138 27.3631 109.611 29.3648 109.611 31.6325C109.611 33.8443 109.138 35.818 108.192 37.5538C107.276 39.2896 105.995 40.6614 104.347 41.6693C102.73 42.6492 100.884 43.1391 98.8088 43.1391C97.4052 43.1391 96.0778 42.9011 94.8267 42.4252C93.5756 41.9213 92.5229 41.2774 91.6685 40.4934C90.8141 39.7095 90.2649 38.8557 90.0208 37.9318L91.7143 37.3018V52H84.2994Z" fill="url(#paint2_linear_10173_1122)"/>
<path d="M66.3759 43.1808C64.6061 43.1808 63.0804 42.8309 61.7988 42.131C60.5172 41.4031 59.5255 40.3812 58.8236 39.0654C58.1523 37.7215 57.8167 36.1117 57.8167 34.236V20.4617H65.1858V33.2281C65.1858 34.5999 65.5367 35.6778 66.2386 36.4617C66.9709 37.2176 67.9779 37.5955 69.2594 37.5955C69.9002 37.5955 70.48 37.5116 70.9987 37.3436C71.5175 37.1476 71.9599 36.8816 72.3261 36.5457C72.7228 36.1817 73.0279 35.7618 73.2415 35.2858C73.4551 34.8099 73.5619 34.292 73.5619 33.732V20.4617H80.9311V42.7609H74.0196L73.745 38.1835L75.0724 37.6795C74.7367 38.7154 74.1264 39.6533 73.2415 40.4932C72.3871 41.3331 71.3649 41.991 70.1749 42.4669C68.9848 42.9429 67.7185 43.1808 66.3759 43.1808Z" fill="url(#paint3_linear_10173_1122)"/>
<path d="M40.1684 43.1808C38.3986 43.1808 36.8729 42.8309 35.5913 42.131C34.3097 41.4031 33.318 40.3812 32.6162 39.0654C31.9448 37.7215 31.6092 36.1117 31.6092 34.236V20.4617H38.9783V33.2281C38.9783 34.5999 39.3292 35.6778 40.0311 36.4617C40.7634 37.2176 41.7704 37.5955 43.052 37.5955C43.6928 37.5955 44.2725 37.5115 44.7913 37.3436C45.31 37.1476 45.7524 36.8816 46.1186 36.5457C46.5153 36.1817 46.8204 35.7618 47.034 35.2858C47.2476 34.8099 47.3544 34.292 47.3544 33.732V20.4617H54.7236V42.7609H47.8121L47.5375 38.1835L48.8649 37.6795C48.5292 38.7154 47.9189 39.6533 47.034 40.4932C46.1796 41.3331 45.1574 41.991 43.9674 42.4669C42.7773 42.9429 41.511 43.1808 40.1684 43.1808Z" fill="url(#paint4_linear_10173_1122)"/>
<path d="M20.6189 43.1811C18.2998 43.1811 16.2249 42.8452 14.394 42.1732C12.5632 41.4733 11.0985 40.5214 10 39.3176L14.4856 35.79C15.4315 36.6579 16.4995 37.3018 17.6895 37.7218C18.8796 38.1137 20.0086 38.3097 21.0766 38.3097C21.4733 38.3097 21.8242 38.2677 22.1293 38.1837C22.4345 38.0997 22.6938 37.9878 22.9074 37.8478C23.1516 37.6798 23.3346 37.4978 23.4567 37.3018C23.5787 37.0779 23.6398 36.8259 23.6398 36.5459C23.6398 35.986 23.3804 35.5661 22.8617 35.2861C22.6176 35.1461 22.1751 34.9781 21.5343 34.7822C20.8935 34.5582 20.0696 34.3342 19.0627 34.1102C17.6285 33.7743 16.3774 33.3683 15.3094 32.8924C14.272 32.4165 13.4176 31.8705 12.7463 31.2546C12.136 30.6947 11.663 30.0508 11.3274 29.3228C11.0222 28.5949 10.8697 27.783 10.8697 26.8871C10.8697 25.5153 11.3121 24.3115 12.197 23.2756C13.1124 22.2397 14.3025 21.4418 15.7672 20.8819C17.2318 20.294 18.8186 20 20.5273 20C21.87 20 23.1363 20.14 24.3263 20.4199C25.5469 20.6999 26.6759 21.0919 27.7134 21.5958C28.7814 22.0997 29.7273 22.7017 30.5512 23.4016L26.6607 27.3911C26.1419 26.9151 25.5316 26.4952 24.8298 26.1312C24.128 25.7393 23.4262 25.4313 22.7244 25.2074C22.0225 24.9554 21.3665 24.8294 20.7562 24.8294C20.2985 24.8294 19.8865 24.8714 19.5204 24.9554C19.1847 25.0114 18.8948 25.1234 18.6507 25.2913C18.4371 25.4313 18.2693 25.6133 18.1472 25.8373C18.0252 26.0332 17.9642 26.2572 17.9642 26.5092C17.9642 26.8172 18.0404 27.0971 18.193 27.3491C18.3761 27.5731 18.6202 27.783 18.9254 27.979C19.2 28.119 19.673 28.301 20.3443 28.5249C21.0461 28.7489 21.9615 29.0009 23.0905 29.2808C24.5247 29.6448 25.7452 30.0647 26.7522 30.5407C27.7897 30.9886 28.6136 31.5206 29.2238 32.1365C29.7426 32.6124 30.1088 33.1724 30.3223 33.8163C30.5665 34.4322 30.6885 35.1041 30.6885 35.832C30.6885 37.2599 30.2461 38.5337 29.3612 39.6536C28.5068 40.7454 27.3167 41.6133 25.791 42.2572C24.2958 42.8732 22.5718 43.1811 20.6189 43.1811Z" fill="url(#paint5_linear_10173_1122)"/>
<g filter="url(#filter0_d_10173_1122)">
<path d="M89.2918 24.5814C93.6209 28.2516 100.327 28.2516 104.656 24.5814C100.627 28.5249 100.627 34.6338 104.656 38.5773C100.327 34.9071 93.6209 34.9071 89.2918 38.5773C93.3209 34.6338 93.3209 28.5249 89.2918 24.5814Z" fill="url(#paint6_linear_10173_1122)"/>
</g>
<g filter="url(#filter1_d_10173_1122)">
<path d="M86.1103 31.5792C92.0205 31.386 96.7626 27.0663 96.9747 21.6826C97.1868 27.0663 101.929 31.386 107.839 31.5792C101.929 31.7725 97.1868 36.0921 96.9747 41.4758C96.7626 36.0921 92.0205 31.7725 86.1103 31.5792Z" fill="url(#paint7_linear_10173_1122)"/>
</g>
<defs>
<filter id="filter0_d_10173_1122" x="3.18284" y="0.721546" width="187.582" height="190.879" filterUnits="userSpaceOnUse" color-interpolation-filters="sRGB">
<feFlood flood-opacity="0" result="BackgroundImageFix"/>
<feColorMatrix in="SourceAlpha" type="matrix" values="0 0 0 0 0 0 0 0 0 0 0 0 0 0 0 0 0 0 127 0" result="hardAlpha"/>
<feMorphology radius="43.0545" operator="erode" in="SourceAlpha" result="effect1_dropShadow_10173_1122"/>
<feOffset dy="64.5817"/>
<feGaussianBlur stdDeviation="64.5817"/>
<feComposite in2="hardAlpha" operator="out"/>
<feColorMatrix type="matrix" values="0 0 0 0 0.141176 0 0 0 0 0.141176 0 0 0 0 0.141176 0 0 0 0.1 0"/>
<feBlend mode="normal" in2="BackgroundImageFix" result="effect1_dropShadow_10173_1122"/>
<feBlend mode="normal" in="SourceGraphic" in2="effect1_dropShadow_10173_1122" result="shape"/>
</filter>
<filter id="filter1_d_10173_1122" x="-1.80935" y="-1.49403" width="197.568" height="195.31" filterUnits="userSpaceOnUse" color-interpolation-filters="sRGB">
<feFlood flood-opacity="0" result="BackgroundImageFix"/>
<feColorMatrix in="SourceAlpha" type="matrix" values="0 0 0 0 0 0 0 0 0 0 0 0 0 0 0 0 0 0 127 0" result="hardAlpha"/>
<feMorphology radius="43.0545" operator="erode" in="SourceAlpha" result="effect1_dropShadow_10173_1122"/>
<feOffset dy="64.5817"/>
<feGaussianBlur stdDeviation="64.5817"/>
<feComposite in2="hardAlpha" operator="out"/>
<feColorMatrix type="matrix" values="0 0 0 0 0.141176 0 0 0 0 0.141176 0 0 0 0 0.141176 0 0 0 0.1 0"/>
<feBlend mode="normal" in2="BackgroundImageFix" result="effect1_dropShadow_10173_1122"/>
<feBlend mode="normal" in="SourceGraphic" in2="effect1_dropShadow_10173_1122" result="shape"/>
</filter>
<linearGradient id="paint0_linear_10173_1122" x1="134.881" y1="42.761" x2="156.749" y2="26.3146" gradientUnits="userSpaceOnUse">
<stop stop-color="#4300B1"/>
<stop offset="1" stop-color="#A531DC"/>
</linearGradient>
<linearGradient id="paint1_linear_10173_1122" x1="109.528" y1="43.181" x2="132.699" y2="19.2969" gradientUnits="userSpaceOnUse">
<stop stop-color="#4300B1"/>
<stop offset="1" stop-color="#A531DC"/>
</linearGradient>
<linearGradient id="paint2_linear_10173_1122" x1="84.299" y1="51.9998" x2="115.408" y2="27.3611" gradientUnits="userSpaceOnUse">
<stop stop-color="#4300B1"/>
<stop offset="1" stop-color="#A531DC"/>
</linearGradient>
<linearGradient id="paint3_linear_10173_1122" x1="57.8163" y1="43.1807" x2="80.5322" y2="20.0696" gradientUnits="userSpaceOnUse">
<stop stop-color="#4300B1"/>
<stop offset="1" stop-color="#A531DC"/>
</linearGradient>
<linearGradient id="paint4_linear_10173_1122" x1="31.6088" y1="43.1807" x2="54.3247" y2="20.0696" gradientUnits="userSpaceOnUse">
<stop stop-color="#4300B1"/>
<stop offset="1" stop-color="#A531DC"/>
</linearGradient>
<linearGradient id="paint5_linear_10173_1122" x1="9.99968" y1="43.181" x2="33.0317" y2="22.6255" gradientUnits="userSpaceOnUse">
<stop stop-color="#4300B1"/>
<stop offset="1" stop-color="#A531DC"/>
</linearGradient>
<linearGradient id="paint6_linear_10173_1122" x1="96.9741" y1="24.5814" x2="96.9741" y2="38.5773" gradientUnits="userSpaceOnUse">
<stop stop-color="white" stop-opacity="0.8"/>
<stop offset="1" stop-color="white" stop-opacity="0.5"/>
</linearGradient>
<linearGradient id="paint7_linear_10173_1122" x1="91.5425" y1="26.6309" x2="101.396" y2="37.4482" gradientUnits="userSpaceOnUse">
<stop stop-color="white" stop-opacity="0.8"/>
<stop offset="1" stop-color="white" stop-opacity="0.5"/>
</linearGradient>
</defs>
</svg>
